{"asset": {"version": "2.0", "generator": "elisa-engine fixture"}, "scenes": [{"nodes": [0]}], "scene": 0, "nodes": [{"mesh": 0, "name": "ElisaTile"}], "meshes": [{"name": "ElisaTile", "primitives": [{"attributes": {"POSITION": 0, "NORMAL": 1, "TEXCOORD_0": 3}, "indices": 2, "mode": 4}]}], "buffers": [{"byteLength": 840, "uri": "data:application/octet-stream;base64,"}], "bufferViews": [{"buffer": 0, "byteOffset": 0, "byteLength": 288, "target": 34962}, {"buffer": 0, "byteOffset": 288, "byteLength": 288, "target": 34962}, {"buffer": 0, "byteOffset": 576, "byteLength": 72, "target": 34963}, {"buffer": 0, "byteOffset": 648, "byteLength": 192, "target": 34962}], "accessors": [{"bufferView": 0, "componentType": 5126, "count": 24, "type": "VEC3", "min": [-1, -1, -1], "max": [1, 1, 1]}, {"bufferView": 1, "componentType": 5126, "count": 24, "type": "VEC3"}, {"bufferView": 2, "componentType": 5123, "count": 36, "type": "SCALAR"}, {"bufferView": 3, "componentType": 5126, "count": 24, "type": "VEC2"}]}